<?xml version="1.0" standalone="no"?>
<svg width="200" height="250" version="1.1" xmlns="http://www.w3.org/2000/svg">
<rect x="10" y="10" width="30" height="30" stroke="black" fill="transparent" stroke-width="5"/> 
<circle cx="25" cy="75" r="20" stroke="blue" fill="transparent" stroke-width="5"/> 
<line x1="10" x2="50" y1="110" y2="150" stroke="orange" stroke-width="5"/> 
<rect x="10" y="138" width="31" height="35" stroke="black" fill="transparent" stroke-width="5"/> 
<circle cx="25" cy="75" r="20" stroke="blue" fill="transparent" stroke-width="5"/> 
<circle cx="11" cy="111" r="1" stroke="red" fill="transparent" stroke-width="5"/> 
<rect x="20" y="10" width="57" height="30" stroke="black" fill="transparent" stroke-width="5"/> 
<line x1="110" x2="12" y1="44" y2="3" stroke="orange" stroke-width="5"/> 
<rect x="15" y="18" width="9" height="35" stroke="blue" fill="transparent" stroke-width="7"/> 
<rect x="130" y="22" width="19" height="33" stroke="green" fill="transparent" stroke-width="5"/> 
<rect x="67" y="52" width="39" height="47" stroke="black" fill="transparent" stroke-width="5"/> 
<circle cx="25" cy="75" r="20" stroke="black" fill="transparent" stroke-width="5"/> 
<line x1="10" x2="50" y1="110" y2="150" stroke="orange" stroke-width="5"/> 
<rect x="10" y="138" width="31" height="35" stroke="green" fill="transparent" stroke-width="5"/> 
<circle cx="25" cy="75" r="20" stroke="red" fill="transparent" stroke-width="5"/> 
<circle cx="11" cy="111" r="1" stroke="green" fill="transparent" stroke-width="5"/> 
</svg>
